# Rhino

mtllib curve.mtl
usemtl diffuse_0
v 0 0 0
v 0 100 0
v -7.4976716041564941 0 37.991043090820313
v -7.4976716041564941 100 37.991043090820313
v -30.029642105102539 0 71.443328857421875
v -30.029642105102539 100 71.443328857421875
v -63.655052185058594 0 93.161392211914063
v -63.655052185058594 100 93.161392211914063
v -100 0 100
v -100 100 100
v -100 0 200
v -100 100 200
v -24.017915725708008 0 185.00465393066406
v -24.017915725708008 100 185.00465393066406
v 42.886653900146484 0 139.94071960449219
v 42.886653900146484 100 139.94071960449219
v 86.322784423828125 0 72.689895629882813
v 86.322784423828125 100 72.689895629882813
v 100 0 0
v 100 100 0
v 100 100 0
v 0 100 0
v -7.4976716041564941 100 37.991043090820313
v -30.029642105102539 100 71.443328857421875
v -63.655052185058594 100 93.161392211914063
v -100 100 100
v -100 100 200
v -24.017915725708008 100 185.00465393066406
v 42.886653900146484 100 139.94071960449219
v 86.322784423828125 100 72.689895629882813
v 100 0 0
v -100 0 200
v 0 0 0
v -7.4976716041564941 0 37.991043090820313
v -30.029642105102539 0 71.443328857421875
v -63.655052185058594 0 93.161392211914063
v -24.017915725708008 0 185.00465393066406
v 42.886653900146484 0 139.94071960449219
v 86.322784423828125 0 72.689895629882813
v -100 0 100
v -100 0 100
v -100 100 100
v -100 0 200
v -100 100 200
v 0 100 0
v 100 100 0
v 0 0 0
v 100 0 0
vt 0.79853516817092896 0
vt 0.60000002384185791 0
vt 0.79853516817092896 0.081057824194431305
vt 0.60000002384185791 0.081057824194431305
vt 0.79853516817092896 0.15905837714672089
vt 0.60000002384185791 0.15905837714672089
vt 0.79853516817092896 0.23661257326602936
vt 0.60000002384185791 0.23661257326602936
vt 0.79853516817092896 0.31416675448417664
vt 0.60000002384185791 0.31416675448417664
vt 0.99853515625 0
vt 0.80000001192092896 0
vt 0.99853515625 0.16211564838886261
vt 0.80000001192092896 0.16211564838886261
vt 0.99853515625 0.31811675429344177
vt 0.80000001192092896 0.31811675429344177
vt 0.99853515625 0.47322514653205872
vt 0.80000001192092896 0.47322514653205872
vt 0.99853515625 0.62833350896835327
vt 0.80000001192092896 0.62833350896835327
vt 0.59853518009185791 0.40000000596046448
vt 0.59853518009185791 0.59926760196685791
vt 0.52283132076263428 0.61420798301696777
vt 0.45617178082466125 0.65910691022872925
vt 0.41289469599723816 0.72611147165298462
vt 0.39926758408546448 0.79853516817092896
vt 0.20000000298023224 0.79853516817092896
vt 0.22988086938858032 0.64712750911712646
vt 0.31967869400978088 0.51380836963653564
vt 0.45368775725364685 0.42725425958633423
vt 0.40000000596046448 0
vt 0 0.39853516221046448
vt 0.40000000596046448 0.19926758110523224
vt 0.32401791214942932 0.21420800685882568
vt 0.25711333751678467 0.25910693407058716
vt 0.21367721259593964 0.32611146569252014
vt 0.029990697279572487 0.24712750315666199
vt 0.12011857330799103 0.11380838602781296
vt 0.25462019443511963 0.027254262939095497
vt 0.20000000298023224 0.39853516221046448
vt 0.19853515923023224 0.40000000596046448
vt 0 0.40000000596046448
vt 0.19853515923023224 0.59853518009185791
vt 0 0.59853518009185791
vt 0.19853515923023224 0.60000002384185791
vt 0 0.60000002384185791
vt 0.19853515923023224 0.79853516817092896
vt 0 0.79853516817092896
vn -1 0 0
vn -1 0 0
vn -0.92502325773239136 0 -0.37991040945053101
vn -0.92502325773239136 0 -0.37991040945053101
vn -0.69970357418060303 0 -0.71443325281143188
vn -0.69970357418060303 0 -0.71443325281143188
vn -0.36344948410987854 0 -0.93161392211914063
vn -0.36344948410987854 0 -0.93161392211914063
vn 0 0 -1
vn 0 0 -1
vn 0 0 1
vn 0 0 1
vn 0.37991040945053101 0 0.92502325773239136
vn 0.37991040945053101 0 0.92502325773239136
vn 0.71443325281143188 0 0.69970357418060303
vn 0.71443325281143188 0 0.69970357418060303
vn 0.93161392211914063 0 0.36344948410987854
vn 0.93161392211914063 0 0.36344948410987854
vn 1 0 0
vn 1 0 0
vn 0 1 0
vn 0 1 0
vn 0 1 0
vn 0 1 0
vn 0 1 0
vn 0 1 0
vn 0 1 0
vn 0 1 0
vn 0 1 0
vn 0 1 0
vn 0 -1 0
vn 0 -1 0
vn 0 -1 0
vn 0 -1 0
vn 0 -1 0
vn 0 -1 0
vn 0 -1 0
vn 0 -1 0
vn 0 -1 0
vn 0 -1 0
vn -1 0 0
vn -1 0 0
vn -1 0 0
vn -1 0 0
vn 0 0 -1
vn 0 0 -1
vn 0 0 -1
vn 0 0 -1
f 3/3/3 4/4/4 2/2/2 1/1/1
f 4/4/4 3/3/3 5/5/5 6/6/6
f 9/9/9 10/10/10 8/8/8 7/7/7
f 7/7/7 8/8/8 6/6/6 5/5/5
f 13/13/13 14/14/14 12/12/12 11/11/11
f 14/14/14 13/13/13 15/15/15 16/16/16
f 19/19/19 20/20/20 18/18/18 17/17/17
f 17/17/17 18/18/18 16/16/16 15/15/15
f 30/30/30 21/21/21 22/22/22
f 29/29/29 30/30/30 23/23/23
f 22/22/22 23/23/23 30/30/30
f 24/24/24 29/29/29 23/23/23
f 28/28/28 24/24/24 25/25/25
f 28/28/28 25/25/25 27/27/27
f 26/26/26 27/27/27 25/25/25
f 29/29/29 24/24/24 28/28/28
f 39/39/39 33/33/33 31/31/31
f 38/38/38 34/34/34 39/39/39
f 33/33/33 39/39/39 34/34/34
f 35/35/35 34/34/34 38/38/38
f 37/37/37 36/36/36 35/35/35
f 37/37/37 32/32/32 36/36/36
f 40/40/40 36/36/36 32/32/32
f 38/38/38 37/37/37 35/35/35
f 42/42/42 41/41/41 43/43/43 44/44/44
f 46/46/46 48/48/48 47/47/47 45/45/45
